<svg xmlns="http://www.w3.org/2000/svg" version="1.1" width="300" height="300" viewBox="0 0 300 300">
	<g transform="matrix(0.32 0 0 0.32 150 150)">
		<g transform="matrix(36.08 0 0 36.08 0 0)">
			<ellipse
					style="stroke: rgb(97,218,251); stroke-width: 1; stroke-dasharray: none; stroke-linecap: butt; stroke-dashoffset: 0; stroke-linejoin: miter; stroke-miterlimit: 4; fill: none; fill-rule: nonzero; opacity: 1;"
					vector-effect="non-scaling-stroke" cx="0" cy="0" rx="11" ry="4.2"/>
		</g>
		<g transform="matrix(18.04 31.38 -31.38 18.04 0.02 -0.06)">
			<ellipse
					style="stroke: rgb(97,218,251); stroke-width: 1; stroke-dasharray: none; stroke-linecap: butt; stroke-dashoffset: 0; stroke-linejoin: miter; stroke-miterlimit: 4; fill: none; fill-rule: nonzero; opacity: 1;"
					vector-effect="non-scaling-stroke" cx="0" cy="0" rx="11" ry="4.2"/>
		</g>
		<g transform="matrix(-18.04 31.38 -31.38 -18.04 0.02 -0.05)">
			<ellipse
					style="stroke: rgb(97,218,251); stroke-width: 1; stroke-dasharray: none; stroke-linecap: butt; stroke-dashoffset: 0; stroke-linejoin: miter; stroke-miterlimit: 4; fill: none; fill-rule: nonzero; opacity: 1;"
					vector-effect="non-scaling-stroke" cx="0" cy="0" rx="11" ry="4.2"/>
		</g>
		<g transform="matrix(0.28 0 0 0.28 0 0)">
			<path style="stroke: rgb(0,0,0); stroke-width: 0; stroke-dasharray: none; stroke-linecap: butt; stroke-dashoffset: 0; stroke-linejoin: miter; stroke-miterlimit: 4; fill: rgb(119,188,31); fill-rule: nonzero; opacity: 1;"
			      vector-effect="non-scaling-stroke" transform=" translate(-383.93, -384.05)"
			      d="M 698.3 40 C 687.5 65.8 673.8 90.3 657.3 112.8 C 585.1 40.6 487.1 0 385 0 C 173.8 0 0 174 0 385.5 C 0 491 43.2 592 119.6 664.8 L 133.79999999999998 677.4 C 203.2 735.9 291.1 768.1 381.79999999999995 768.1 C 582.5999999999999 768.1 751.4 610.7 765.6999999999999 410.1 C 776.1999999999999 311.90000000000003 747.4 187.70000000000002 698.3 40 z M 174.29999999999995 667 C 168.09999999999997 674.7 158.59999999999997 679.2 148.69999999999996 679.2 C 130.59999999999997 679.2 115.79999999999995 664.3000000000001 115.79999999999995 646.2 C 115.79999999999995 628.1 130.69999999999996 613.2 148.69999999999996 613.2 C 156.19999999999996 613.2 163.59999999999997 615.8000000000001 169.39999999999995 620.6 C 183.49999999999994 632 185.69999999999996 652.9 174.29999999999995 667 z M 696.6999999999999 551.6 C 601.6999999999999 678.3000000000001 398.79999999999995 635.6 268.69999999999993 641.7 C 268.69999999999993 641.7 245.59999999999994 643.1 222.39999999999992 646.9000000000001 C 222.39999999999992 646.9000000000001 231.0999999999999 643.2 242.39999999999992 638.9000000000001 C 333.69999999999993 607.1000000000001 376.8999999999999 600.9000000000001 432.3999999999999 572.4000000000001 C 536.8999999999999 519.2 640.1999999999999 402.80000000000007 661.6999999999999 281.7000000000001 C 621.9 398.2 501.3 498.3 391.4 539 C 316.09999999999997 566.8 180.09999999999997 593.8 180.09999999999997 593.8 L 174.59999999999997 590.9 C 82 545.8 79.2 345.1 247.5 280.3 C 321.2 251.9 391.7 267.5 471.3 248.5 C 556.3 228.3 654.6 164.5 694.6 81.30000000000001 C 739.4 214.4 793.3000000000001 422.8 696.7 551.6 z"
			      stroke-linecap="round"/>
		</g>
	</g>
</svg>
